<?xml version="1.0" standalone="no"?>
<!DOCTYPE svg PUBLIC "-//W3C//DTD SVG 20010904//EN"
 "http://www.w3.org/TR/2001/REC-SVG-20010904/DTD/svg10.dtd">
<svg version="1.0" xmlns="http://www.w3.org/2000/svg"
 width="856.000000pt" height="237.000000pt" viewBox="0 0 856.000000 237.000000"
 preserveAspectRatio="xMidYMid meet">

<g transform="translate(0.000000,237.000000) scale(0.100000,-0.100000)"
fill="#000000" stroke="none">
<path d="M850 2307 c0 -4 161 -321 165 -325 2 -2 27 1 56 7 28 6 54 9 57 7 5
-5 31 -123 32 -143 0 -6 -18 -14 -41 -18 -47 -8 -48 10 6 -169 20 -66 41 -148
48 -183 7 -40 16 -63 25 -63 7 0 45 7 84 16 38 9 74 12 78 8 5 -5 19 -64 33
-131 l24 -122 -66 -15 c-36 -8 -83 -18 -103 -21 l-38 -7 0 -82 c0 -289 -163
-693 -298 -737 -83 -26 -252 -128 -252 -151 0 -12 11 -10 149 31 127 38 286
54 401 41 44 -5 155 -28 247 -52 157 -39 177 -42 303 -42 108 0 150 5 213 22
86 24 192 73 261 121 85 58 75 72 -26 37 -102 -35 -157 -46 -278 -56 -129 -10
-234 1 -394 41 -67 17 -152 37 -191 45 l-70 14 85 -5 c47 -3 119 -12 160 -20
128 -26 314 -31 404 -10 84 18 241 80 253 99 5 6 13 38 20 71 25 120 131 295
268 443 32 34 55 65 51 69 -10 11 -266 -47 -461 -103 -279 -82 -628 -236 -825
-364 l-95 -62 73 76 c185 195 297 395 332 592 16 87 8 256 -14 338 -62 223
-225 456 -456 650 -110 92 -220 169 -220 153z m493 -584 c3 -5 8 -29 12 -55 8
-51 8 -50 -67 -63 l-36 -7 -7 46 c-4 25 -8 49 -9 53 0 5 19 13 44 20 57 14 58
15 63 6z"/>
<path d="M1040 2300 c0 -5 12 -17 28 -27 225 -142 449 -384 552 -596 71 -146
91 -226 97 -382 6 -146 -14 -269 -61 -385 -14 -35 -24 -66 -21 -68 7 -7 121
46 210 99 338 199 510 445 465 665 -36 177 -198 339 -465 465 -181 86 -376
150 -633 209 -135 32 -172 36 -172 20z"/>
<path d="M555 2098 c-49 -11 -91 -22 -93 -23 -5 -5 34 -195 42 -202 3 -4 51 2
106 12 120 22 114 0 65 213 -6 26 -3 26 -120 0z"/>
<path d="M2954 1785 l-24 -24 2 -238 3 -238 70 0 70 0 3 77 3 77 37 7 c20 3
75 14 122 23 l85 16 0 138 0 139 -28 24 c-27 23 -34 24 -173 24 -141 0 -146
-1 -170 -25z m224 -147 c3 -22 -2 -30 -23 -38 -14 -5 -37 -10 -51 -10 -21 0
-24 4 -24 41 l0 40 48 -3 c43 -3 47 -5 50 -30z"/>
<path d="M3402 1548 l3 -263 70 0 70 0 3 263 2 262 -75 0 -75 0 2 -262z"/>
<path d="M3610 1800 c0 -6 30 -63 67 -127 36 -64 66 -121 66 -127 0 -6 -32
-66 -71 -133 -38 -67 -68 -124 -64 -127 3 -3 40 -6 83 -6 l77 0 31 55 c17 30
33 55 36 55 3 0 19 -25 36 -55 l31 -55 77 0 c43 0 80 3 83 6 4 3 -26 60 -64
127 -39 67 -71 127 -71 133 0 6 30 63 66 127 37 64 67 121 67 127 0 7 -28 10
-82 8 l-82 -3 -26 -45 c-14 -25 -30 -45 -35 -45 -5 0 -21 20 -35 45 l-26 45
-82 3 c-54 2 -82 -1 -82 -8z"/>
<path d="M4146 1779 l-26 -31 2 -231 3 -232 195 0 195 0 0 70 0 70 -123 3
c-109 2 -123 5 -120 19 2 12 22 20 70 29 37 7 72 16 78 19 5 3 10 36 10 72 l0
66 -57 -7 c-31 -4 -67 -9 -80 -12 -20 -5 -23 -2 -23 25 l0 31 125 0 125 0 0
45 c0 35 -6 52 -25 70 -23 24 -28 25 -174 25 l-149 0 -26 -31z"/>
<path d="M4572 1548 l3 -263 195 0 195 0 3 104 3 104 -53 -7 c-84 -11 -98 -17
-98 -37 0 -16 -8 -19 -50 -19 l-50 0 0 190 0 190 -75 0 -75 0 2 -262z"/>
<path d="M5049 1781 l-29 -30 2 -233 3 -233 70 0 70 0 3 76 c3 83 7 89 74 89
27 0 27 0 30 -82 l3 -83 70 0 70 0 3 232 2 231 -26 31 -26 31 -145 0 -145 0
-29 -29z m221 -145 c0 -30 -4 -34 -31 -40 -63 -12 -69 -9 -69 34 l0 40 50 0
50 0 0 -34z"/>
<path d="M5492 1548 l3 -263 195 0 195 0 3 104 3 104 -53 -7 c-84 -11 -98 -17
-98 -37 0 -16 -8 -19 -50 -19 l-50 0 0 190 0 190 -75 0 -75 0 2 -262z"/>
<path d="M5973 1786 l-28 -24 0 -239 0 -238 195 0 195 0 3 113 3 113 -38 -7
c-108 -19 -108 -19 -111 -47 -3 -25 -6 -27 -53 -27 l-50 0 3 118 3 117 46 3
c41 3 47 0 52 -19 5 -20 10 -21 54 -15 96 14 93 12 93 73 0 44 -5 58 -25 78
-23 24 -28 25 -169 25 -139 0 -146 -1 -173 -24z"/>
<path d="M6419 1784 l-24 -26 0 -236 0 -237 70 0 70 0 3 91 3 92 31 6 c69 14
67 16 70 -91 l3 -98 70 0 70 0 3 220 c1 121 0 230 -3 242 -10 41 -44 63 -97
63 l-48 0 0 -89 0 -88 -31 -7 c-71 -14 -69 -16 -69 89 l0 95 -48 0 c-39 0 -53
-5 -73 -26z"/>
<path d="M6872 1790 c-12 -11 -24 -31 -27 -43 -3 -12 -4 -121 -3 -242 l3 -220
195 0 195 0 0 70 0 70 -123 3 c-110 2 -123 4 -120 20 2 12 20 20 64 28 98 17
95 15 92 86 l-3 63 -40 0 c-22 0 -57 -4 -77 -8 -37 -8 -38 -7 -38 23 l0 30
125 0 125 0 0 36 c0 39 -14 72 -39 91 -11 8 -63 12 -162 13 -132 0 -147 -2
-167 -20z"/>
<path d="M7292 1548 l3 -263 70 0 70 0 3 145 c3 147 6 160 44 160 16 0 18 -16
20 -152 l3 -153 70 0 70 0 3 173 c1 94 6 172 11 172 5 0 16 3 25 6 14 5 16
-16 18 -173 l3 -178 70 0 70 0 3 238 2 238 -24 24 c-23 23 -32 25 -118 25 -69
0 -100 -4 -116 -16 -20 -14 -24 -14 -44 0 -17 12 -50 16 -140 16 l-118 0 2
-262z"/>
<path d="M7920 1800 c0 -5 23 -60 52 -122 28 -62 51 -117 51 -123 0 -5 -25
-65 -56 -133 -32 -68 -57 -127 -57 -133 0 -14 146 -11 158 4 13 15 232 495
232 508 0 5 -35 9 -79 9 -78 0 -79 0 -91 -30 -7 -16 -16 -30 -20 -30 -4 0 -13
14 -20 30 -12 30 -13 30 -91 30 -44 0 -79 -4 -79 -10z"/>
<path d="M477 1685 c-32 -7 -61 -15 -64 -19 -4 -4 0 -39 8 -79 16 -81 9 -78
117 -56 59 12 61 18 38 114 -13 57 -17 58 -99 40z"/>
<path d="M830 1676 c-73 -15 -106 -26 -108 -37 -3 -15 43 -237 51 -245 4 -4
248 43 255 50 3 4 -32 196 -44 239 -7 21 -21 21 -154 -7z"/>
<path d="M262 1380 c-18 -4 -35 -10 -38 -12 -2 -3 1 -28 7 -57 8 -41 14 -51
27 -47 10 3 34 8 55 12 41 7 41 7 26 70 -12 47 -16 49 -77 34z"/>
<path d="M635 1262 c-38 -10 -70 -22 -70 -27 0 -39 30 -157 40 -162 12 -4 164
22 171 30 1 1 -5 40 -15 87 -19 99 -18 98 -126 72z"/>
<path d="M950 1047 c-52 -10 -97 -21 -99 -23 -6 -5 31 -188 40 -198 4 -5 49
-1 103 10 87 16 96 20 96 40 0 31 -31 178 -38 185 -4 3 -50 -3 -102 -14z"/>
<path d="M873 208 c-24 -5 -43 -13 -43 -17 0 -4 55 -11 123 -14 139 -7 204
-21 369 -78 65 -22 152 -46 194 -54 75 -15 253 -18 308 -6 58 12 36 26 -47 29
-115 4 -175 16 -390 78 -104 29 -216 58 -250 64 -75 12 -207 11 -264 -2z"/>
</g>
</svg>
